<?xml version="1.0" standalone="no"?>
<!DOCTYPE svg PUBLIC "-//W3C//DTD SVG 20010904//EN"
 "http://www.w3.org/TR/2001/REC-SVG-20010904/DTD/svg10.dtd">
<svg version="1.0" xmlns="http://www.w3.org/2000/svg"
 width="1844.000000pt" height="1844.000000pt" viewBox="0 0 1844.000000 1844.000000"
 preserveAspectRatio="xMidYMid meet">
<metadata>
Created by potrace 1.14, written by Peter Selinger 2001-2017
</metadata>
<g transform="translate(0.000000,1844.000000) scale(0.100000,-0.100000)"
fill="#000000" stroke="none">
<path d="M1550 9218 l0 -5778 4477 0 c2462 0 4474 2 4472 4 -2 2 -65 6 -139
10 -74 3 -148 8 -165 10 -16 3 -59 7 -95 11 -36 3 -81 7 -100 10 -100 13 -136
18 -150 20 -46 8 -106 19 -110 20 -3 1 -25 5 -50 9 -88 15 -396 89 -435 105
-11 4 -81 29 -155 54 -185 62 -234 81 -238 90 -2 4 -11 7 -19 7 -20 0 -347
159 -351 171 -2 5 -8 9 -14 9 -15 0 -312 181 -328 200 -3 3 -21 17 -40 30 -38
27 -36 25 -100 75 -63 49 -57 44 -140 116 -150 129 -335 326 -444 474 -17 22
-33 42 -36 45 -8 7 -132 196 -171 260 -55 93 -178 339 -194 390 -3 9 -17 44
-25 65 -15 36 -23 60 -26 75 -2 8 -7 23 -13 35 -12 24 -57 177 -77 260 -3 11
-6 25 -8 30 -2 6 -6 26 -10 45 l-7 35 -1322 0 -1322 0 -1 4435 c-1 2439 -2
4440 -3 4446 -1 8 -383 11 -1331 11 l-1330 0 0 -5779z"/>
<path d="M10656 10603 c-2 -2 -49 -6 -104 -8 -55 -2 -120 -6 -144 -9 -23 -2
-72 -8 -108 -11 -36 -4 -76 -8 -90 -10 -14 -2 -45 -7 -70 -10 -37 -5 -189 -32
-275 -49 -125 -25 -509 -139 -590 -176 -11 -5 -56 -24 -100 -43 -179 -77 -296
-134 -306 -150 -3 -5 -10 -9 -15 -9 -12 -1 -58 -21 -64 -29 -3 -3 -25 -16 -50
-30 -62 -34 -355 -230 -370 -248 -3 -4 -30 -26 -60 -51 -30 -24 -62 -50 -70
-57 -8 -6 -76 -72 -151 -145 -119 -116 -225 -236 -309 -347 -14 -18 -35 -46
-47 -61 -13 -15 -23 -32 -23 -38 0 -6 -3 -12 -7 -14 -20 -9 -147 -215 -223
-363 -94 -184 -229 -552 -232 -632 0 -5 -4 -15 -9 -24 -4 -9 -11 -29 -14 -45
-30 -157 -44 -248 -40 -252 3 -3 1 -10 -4 -16 -9 -11 -12 -32 -28 -221 -10
-112 -9 -517 0 -605 4 -36 8 -72 8 -80 1 -8 5 -46 11 -85 5 -38 11 -85 13
-102 4 -25 29 -148 50 -238 36 -159 128 -421 196 -558 10 -22 19 -45 19 -52 0
-7 3 -15 8 -17 4 -1 23 -34 42 -73 19 -38 41 -76 47 -83 7 -7 16 -24 19 -38 3
-13 10 -24 15 -24 5 0 9 -6 9 -14 0 -8 4 -16 8 -18 4 -1 20 -23 34 -48 25 -44
155 -230 168 -240 3 -3 24 -27 45 -55 115 -144 316 -343 475 -470 131 -105
331 -245 349 -245 6 0 11 -4 11 -10 0 -5 7 -10 15 -10 8 0 15 -3 15 -8 0 -4
15 -13 33 -21 17 -8 43 -22 57 -31 42 -29 198 -109 203 -104 2 2 10 -2 17 -11
7 -8 17 -15 22 -15 4 0 43 -16 86 -36 42 -19 86 -39 97 -45 76 -34 339 -124
455 -156 112 -30 250 -63 287 -69 21 -3 41 -8 44 -10 4 -2 28 -6 55 -9 26 -4
51 -8 54 -10 4 -2 29 -7 56 -10 27 -3 58 -8 70 -10 41 -9 130 -19 171 -19 24
-1 43 -4 43 -7 0 -3 12 -6 28 -6 15 0 61 -3 102 -7 41 -3 111 -8 155 -11 100
-7 544 -7 645 -1 215 15 247 18 270 21 14 2 54 6 90 10 36 3 90 10 120 15 30
5 75 12 100 15 25 4 68 11 95 16 65 13 90 18 118 23 226 41 677 199 858 302
33 18 59 30 59 27 0 -3 7 0 15 7 16 13 83 52 125 72 14 7 29 18 33 25 4 7 13
13 19 13 10 0 83 45 98 60 3 3 25 19 50 35 24 17 54 37 65 47 11 9 56 45 100
80 44 34 127 109 184 165 l105 101 -98 99 c-53 54 -369 372 -701 707 l-604
609 -38 -30 c-43 -33 -222 -153 -229 -153 -2 0 -23 -12 -47 -27 -74 -47 -270
-140 -347 -166 -126 -41 -216 -63 -295 -73 -33 -3 -69 -8 -80 -10 -80 -15
-357 -21 -495 -10 -220 17 -481 88 -602 163 -21 13 -40 23 -42 23 -3 0 -34 19
-68 43 -85 57 -213 186 -270 272 -68 103 -137 244 -120 246 4 0 1014 1 2245 1
l2237 1 1 21 c0 12 2 28 3 36 3 14 7 58 23 300 20 303 -3 764 -51 996 -2 12
-7 39 -10 60 -4 22 -9 47 -12 56 -5 16 -10 40 -20 88 -17 84 -96 340 -114 372
-6 10 -10 22 -10 28 0 22 -111 257 -172 363 -44 79 -155 251 -180 282 -5 5
-38 48 -74 95 -143 186 -322 366 -516 519 -93 73 -263 191 -275 191 -6 0 -18
9 -28 20 -10 11 -21 20 -25 20 -4 0 -51 25 -104 55 -53 30 -98 55 -101 55 -3
1 -52 23 -109 50 -58 27 -116 52 -130 56 -15 3 -26 11 -26 17 0 6 -3 7 -6 4
-4 -3 -16 -1 -28 5 -11 7 -25 13 -31 14 -5 1 -54 18 -108 38 -94 34 -280 92
-322 100 -11 2 -49 12 -85 21 -74 19 -62 17 -200 43 -58 11 -129 23 -159 27
-30 4 -61 8 -70 10 -9 1 -47 6 -86 10 -38 4 -83 9 -100 11 -16 2 -91 6 -165 9
-74 3 -135 5 -135 6 0 3 -167 1 -170 -3 -3 -3 -23 -2 -45 2 -22 4 -41 5 -44 3z
m392 -1843 c45 -8 82 -18 82 -22 0 -5 4 -7 9 -4 9 6 126 -32 181 -59 135 -66
292 -204 378 -332 71 -105 134 -243 162 -353 6 -25 13 -52 15 -60 4 -13 -116
-15 -1039 -15 l-1045 0 6 30 c21 111 98 294 168 400 54 81 168 196 250 252 94
63 223 123 298 138 10 3 26 6 35 9 17 5 42 10 117 22 22 3 41 7 42 8 9 8 273
-3 341 -14z"/>
<path d="M14928 5612 l-67 -3 0 -1009 -1 -1010 100 0 c55 0 228 -1 385 -1 157
0 568 1 914 1 l629 0 0 1010 0 1010 -41 0 c-280 3 -1869 4 -1919 2z"/>
</g>
</svg>
